<?xml version="1.0" encoding="utf-8"?>
<!-- Svg Vector Icons : http://www.onlinewebfonts.com/icon -->
<!DOCTYPE svg PUBLIC "-//W3C//DTD SVG 1.1//EN" "http://www.w3.org/Graphics/SVG/1.1/DTD/svg11.dtd">
<svg version="1.1" xmlns="http://www.w3.org/2000/svg" xmlns:xlink="http://www.w3.org/1999/xlink" x="0px" y="0px" viewBox="0 0 1000 1000" enable-background="new 0 0 1000 1000" xml:space="preserve">
<metadata> Svg Vector Icons : http://www.onlinewebfonts.com/icon </metadata>
<g><path d="M990,908.6L728.1,649.1c49.7-66.4,79.1-148.9,79.1-238.3c0-220.1-178.5-398.6-398.6-398.6C188.4,12.2,10,190.6,10,410.7c0,220.1,178.4,398.6,398.6,398.6c89.7,0,172.5-29.7,239.2-79.8l260.6,258.2L990,908.6L990,908.6z M76.7,410.8c0-183.3,148.6-331.8,331.9-331.8c183.2,0,331.8,148.6,331.8,331.8c0,183.3-148.6,331.9-331.8,331.9C225.2,742.6,76.7,594.1,76.7,410.8L76.7,410.8z"/><path d="M115.1,426.6c0,0,21.8-289.3,287.4-291.1l-3.6,20.9c0,0-220.4-20.9-263.9,276.6L115.1,426.6z"/><path d="M402.5,135.5l-287,289.7L402.5,135.5z"/></g>
</svg>